<svg version="1" xmlns="http://www.w3.org/2000/svg" width="404" height="404" viewBox="0 0 303.000000 303.000000"><path d="M0 151.5V303h303V0H0v151.5zm237.6-60.8c3.5.9 6.4 2.2 6.4 2.8 0 .5-8.1 25.4-18.1 55.2-14.6 43.9-18.4 54.3-19.8 54.3-1.5 0-12.2-2.8-12.8-3.4-.2-.2 34.3-104.3 36.2-109.4.6-1.5.4-1.5 8.1.5zm-121.1 30.7c5.6 1.3 5.8 2 3.6 10.4l-1.2 4.1-9.2-.5c-8.2-.5-9.6-.3-12.5 1.5-4.9 3.1-6.6 8-6.7 18.6 0 10 1.5 13.9 6.8 17.9 2.5 1.8 4.1 2.1 12.7 1.9l9.9-.1 1.1 5.5c1.4 6.7 1.4 6.7-8.4 8.4-17.5 2.9-30.2-2.5-36.7-15.8-3.2-6.4-3.4-7.3-3.4-17.8 0-14.1 1.9-20 8.5-26.6 6.2-6.2 13.1-8.8 23-8.8 4.1.1 9.8.6 12.5 1.3zm51.8-.2c5.3 1.6 10.2 6.4 11.6 11.3.6 2.2 1.1 12 1.1 22 0 9.9.4 18.7 1 19.5.5.9 2.2 1.3 4.3 1.2 3.3-.2 3.4-.1 4.6 5 1 4.6 1 5.4-.5 6.5-1.7 1.3-10.1 3.3-13.6 3.3-2.6 0-10.8-3.8-10.8-5 0-.5-2.3.3-5.2 1.8-4.4 2.3-6.5 2.7-13.3 2.7-9.2 0-12.9-1.5-17.1-7.1-2.1-2.7-2.9-5-3.2-9.4-1.1-15 7.5-22 27-22h9l-.4-6.1c-.6-8.9-2.6-10.3-13.3-9.6-4.4.3-9.2.9-10.6 1.2-2.4.6-2.8.3-4.3-4.1-.9-2.6-1.6-5.4-1.6-6.1 0-4.5 25.3-8.1 35.3-5.1zM62 130.8v7.9l-13.7 6.4-13.6 6.5 13.6 6.4 13.7 6.4v7.8c0 4.5-.4 7.8-1 7.8-.5 0-11.1-5.1-23.5-11.2L15 157.5v-12l22.3-11.2c12.2-6.2 22.8-11.2 23.5-11.2.8-.1 1.2 2.1 1.2 7.7zm202.5 3.5l22 11.2.3 6.1.3 6-22.9 11.2C251.6 175 241 180 240.7 180c-.4 0-.7-3.5-.7-7.8v-7.7l13.2-6.6 13.1-6.6-6.6-3.1c-3.7-1.8-9.6-4.6-13.2-6.3l-6.5-3.1v-7.9c0-5.7.4-7.9 1.3-7.9.6.1 11.1 5.1 23.2 11.3z"/><path d="M147.6 163.1c-3.3 2.6-3.7 8.8-.6 11.9 2.4 2.4 8.8 2.7 13 .5 2.9-1.5 3-1.9 3-8V161h-6.4c-4.9 0-6.9.5-9 2.1z"/></svg>